<?xml version="1.0" standalone="no"?>
<!DOCTYPE svg PUBLIC "-//W3C//DTD SVG 20010904//EN"
 "http://www.w3.org/TR/2001/REC-SVG-20010904/DTD/svg10.dtd">
<svg version="1.0" xmlns="http://www.w3.org/2000/svg"
 width="2400.000000pt" height="2400.000000pt" viewBox="0 0 2400.000000 2400.000000"
 preserveAspectRatio="xMidYMid meet">
<metadata>
Created by potrace 1.14, written by Peter Selinger 2001-2017
</metadata>
<g transform="translate(0.000000,2400.000000) scale(0.100000,-0.100000)"
fill="#000000" stroke="none">
<path d="M11158 23995 c-2 -1 -46 -5 -98 -9 -52 -4 -106 -8 -120 -11 -14 -2
-47 -6 -75 -9 -62 -7 -105 -14 -171 -27 -28 -5 -63 -12 -79 -15 -119 -21 -275
-79 -350 -130 -104 -70 -237 -212 -326 -349 -60 -90 -143 -272 -154 -334 -3
-19 -8 -38 -11 -42 -18 -30 -26 -283 -12 -364 42 -230 204 -438 438 -564 58
-31 175 -79 220 -91 19 -5 60 -15 90 -24 30 -8 66 -17 80 -19 102 -19 152 -27
195 -32 28 -3 68 -7 90 -10 22 -2 76 -7 120 -10 44 -3 105 -8 135 -10 30 -2
120 -7 200 -10 80 -4 170 -8 200 -10 30 -2 98 -7 150 -10 52 -3 115 -8 140
-11 25 -2 74 -7 110 -10 36 -3 110 -12 165 -20 55 -8 114 -17 130 -19 17 -2
60 -10 97 -19 36 -8 78 -17 93 -20 44 -8 225 -66 290 -93 346 -143 580 -354
734 -660 123 -244 177 -449 159 -605 -34 -295 -243 -558 -803 -1013 -60 -49
-112 -92 -115 -95 -3 -3 -59 -48 -125 -100 -66 -52 -122 -97 -125 -100 -3 -3
-59 -50 -125 -105 -66 -54 -125 -104 -131 -110 -7 -5 -43 -37 -80 -70 -193
-168 -422 -398 -554 -555 -30 -36 -58 -67 -61 -70 -13 -11 -169 -221 -221
-295 -113 -164 -237 -387 -323 -580 -26 -58 -115 -290 -119 -310 -2 -5 -10
-35 -20 -65 -18 -57 -45 -153 -51 -181 -2 -8 -10 -44 -19 -80 -16 -69 -32
-150 -42 -213 -8 -54 -13 -78 -16 -81 -2 -1 -52 -14 -113 -29 -329 -84 -680
-205 -984 -340 -57 -25 -105 -45 -105 -44 -110 216 -236 388 -421 574 -129
130 -208 198 -365 314 -127 95 -396 270 -414 270 -5 0 -20 9 -36 20 -27 19
-383 200 -394 200 -3 0 -29 11 -58 24 -367 165 -821 295 -1158 332 -86 9 -259
10 -336 1 -114 -14 -214 -53 -281 -111 -49 -42 -96 -149 -109 -251 -3 -22 -9
-62 -12 -90 -12 -87 -3 -473 13 -535 2 -8 6 -42 10 -75 3 -33 8 -72 11 -87 12
-78 15 -97 25 -150 5 -32 12 -70 15 -85 83 -459 309 -1060 536 -1423 15 -25
35 -60 45 -77 9 -18 20 -33 25 -33 4 0 8 -4 8 -10 0 -18 185 -268 255 -344 34
-38 43 -56 26 -56 -9 0 -381 -368 -466 -460 -87 -95 -189 -212 -266 -305 -41
-49 -79 -95 -84 -101 -6 -6 -37 -47 -70 -90 -33 -43 -63 -81 -66 -84 -17 -15
-182 -249 -291 -415 -455 -689 -798 -1453 -1007 -2246 -16 -64 -32 -127 -35
-140 -3 -13 -10 -44 -17 -69 -6 -25 -13 -56 -15 -70 -3 -14 -14 -65 -24 -115
-35 -165 -79 -423 -95 -555 -3 -25 -7 -61 -10 -80 -6 -49 -13 -114 -20 -195
-4 -38 -8 -86 -11 -106 -27 -249 -26 -1194 1 -1404 4 -27 13 -119 19 -200 2
-16 6 -48 9 -70 4 -22 9 -62 12 -90 3 -27 8 -61 10 -75 2 -14 6 -45 10 -70 16
-107 25 -161 30 -180 2 -8 6 -32 9 -53 8 -53 55 -284 68 -332 5 -22 12 -48 14
-58 2 -10 5 -26 8 -35 3 -9 7 -28 10 -42 3 -14 10 -43 16 -65 6 -22 13 -49 15
-59 25 -108 164 -544 220 -691 71 -187 110 -283 177 -435 107 -241 238 -499
358 -705 29 -49 61 -106 72 -125 39 -67 193 -306 272 -420 112 -163 337 -462
376 -500 3 -3 25 -30 50 -60 25 -30 55 -66 67 -80 12 -14 31 -36 43 -50 128
-149 510 -537 619 -629 29 -24 67 -58 84 -75 18 -17 57 -51 87 -76 30 -25 67
-55 81 -68 l27 -24 -46 -76 c-39 -67 -103 -195 -155 -312 -51 -116 -131 -397
-153 -535 -4 -27 -8 -54 -9 -60 -19 -90 -27 -484 -12 -605 56 -446 257 -750
610 -924 126 -62 306 -120 437 -142 14 -2 36 -7 48 -10 13 -2 43 -7 65 -10 23
-3 53 -7 65 -10 13 -3 52 -7 85 -10 34 -3 78 -7 97 -9 278 -28 2006 -28 2170
0 14 2 56 7 93 10 183 16 483 83 602 134 164 72 268 137 367 230 147 138 252
324 308 548 l10 41 280 1 280 0 10 -42 c102 -407 348 -668 759 -807 75 -25
182 -53 246 -65 113 -21 215 -36 281 -40 43 -3 85 -8 91 -10 40 -13 408 -20
1093 -20 682 0 927 5 1075 20 22 2 67 7 100 10 72 7 99 11 232 36 525 97 840
329 990 728 25 68 60 202 68 268 3 21 9 67 14 103 9 65 7 413 -3 480 -2 19 -7
53 -10 75 -13 102 -20 138 -47 245 -16 63 -32 126 -35 139 -25 115 -181 460
-269 594 -14 23 -12 26 78 103 399 343 833 795 1083 1130 16 22 31 41 34 44
17 16 210 285 287 400 387 581 670 1155 898 1825 39 115 83 257 90 289 3 11
11 40 19 65 37 112 139 561 170 746 28 167 50 318 61 415 3 30 8 69 10 85 2
17 6 64 10 105 3 41 8 94 11 117 26 230 25 1145 -1 1363 -1 14 -6 64 -10 110
-3 47 -8 96 -10 110 -2 14 -7 50 -10 80 -3 30 -12 100 -21 155 -8 55 -19 129
-24 165 -12 78 -13 84 -50 271 -272 1369 -914 2629 -1873 3674 -51 55 -174
181 -273 280 l-182 180 70 80 c103 118 299 387 316 434 3 9 13 27 22 41 71
102 212 396 303 630 84 214 187 580 227 801 11 63 22 123 24 134 6 33 15 97
21 145 3 25 8 61 10 80 25 193 25 522 0 655 -23 124 -72 211 -147 262 -55 36
-150 69 -228 79 -77 10 -244 11 -315 3 -33 -4 -82 -10 -110 -13 -210 -22 -684
-153 -915 -251 -30 -13 -100 -43 -155 -66 -166 -69 -444 -211 -587 -301 -43
-26 -82 -48 -87 -48 -5 0 -11 -3 -13 -7 -1 -5 -43 -35 -93 -68 -215 -142 -435
-330 -579 -491 -114 -129 -120 -136 -189 -238 -82 -120 -82 -120 -123 -203
-20 -40 -41 -73 -46 -73 -5 0 -25 9 -46 19 -20 10 -86 40 -147 65 -60 26 -119
51 -130 56 -11 5 -45 19 -75 30 -30 11 -64 25 -75 30 -11 5 -40 16 -65 24 -25
8 -72 25 -105 37 -198 71 -577 172 -803 214 -15 3 -37 7 -48 9 -12 2 -37 7
-55 10 -19 3 -43 8 -54 10 -12 2 -48 8 -80 12 -33 4 -62 9 -65 9 -3 1 -36 5
-75 10 -61 7 -95 12 -102 14 -6 2 122 232 175 316 152 238 324 448 587 715
126 129 363 357 434 419 19 17 196 181 264 245 268 252 508 505 640 676 7 8
26 33 43 55 39 50 161 234 197 297 104 181 221 464 252 612 2 12 6 30 9 41 21
93 46 233 51 295 4 41 9 89 10 105 5 49 5 325 0 395 -7 101 -27 263 -40 335
-3 17 -10 55 -15 85 -48 268 -159 644 -257 870 -71 163 -196 389 -275 497 -21
29 -38 55 -38 57 0 3 -9 16 -19 28 -10 13 -47 59 -82 103 -92 116 -327 348
-454 449 -60 48 -116 91 -122 96 -32 26 -247 162 -323 204 -120 67 -326 167
-450 216 -93 38 -279 105 -320 115 -8 2 -62 18 -120 34 -131 39 -446 109 -560
125 -19 3 -51 7 -70 10 -93 14 -192 26 -260 31 -41 4 -88 9 -105 11 -34 5
-642 14 -647 9z"/>
</g>
</svg>
